<svg version="1.1" id="Layer_1" xmlns="http://www.w3.org/2000/svg" xmlns:xlink="http://www.w3.org/1999/xlink" x="0px" y="0px"
	 width="100%" viewBox="0 0 500 500" enable-background="new 0 0 500 500" xml:space="preserve">
<path fill="#FFFFFF" opacity="1.000000" stroke="none" 
	d="
M458.000000,501.000000 
	C305.333374,501.000000 153.166733,501.000000 1.000082,501.000000 
	C1.000054,334.333405 1.000054,167.666824 1.000027,1.000171 
	C167.666550,1.000114 334.333099,1.000114 500.999756,1.000057 
	C500.999817,167.666519 500.999817,334.333038 500.999908,500.999756 
	C486.833344,501.000000 472.666656,501.000000 458.000000,501.000000 
M357.464386,271.160156 
	C359.595764,282.692444 365.284393,287.238159 378.074768,287.629608 
	C392.274811,288.064209 398.203430,283.890045 401.268768,271.299438 
	C407.250732,284.535645 414.101044,288.705017 426.993561,286.956451 
	C436.164886,285.712585 442.494232,279.049652 443.781647,269.122253 
	C439.805573,269.122253 435.853058,269.122253 431.824554,269.122253 
	C431.291870,270.411255 431.129333,272.061249 430.235901,272.719910 
	C427.972076,274.388855 425.306183,276.832916 422.939606,276.689209 
	C420.310791,276.529541 416.562866,274.421326 415.539062,272.152191 
	C412.814941,266.114655 412.457245,259.302094 415.736389,253.365051 
	C417.072601,250.945831 420.820557,248.666306 423.551270,248.568939 
	C425.941284,248.483719 428.479401,251.494934 430.879578,253.238159 
	C431.931885,254.002441 432.737396,255.689224 433.769867,255.790970 
	C437.129822,256.122101 440.542847,255.914932 445.631561,255.914932 
	C442.936798,250.960815 441.609802,246.614166 438.789642,243.725021 
	C432.503479,237.285049 424.352264,236.740204 416.014771,238.911499 
	C408.101776,240.972260 403.698212,246.586060 402.077911,254.297241 
	C401.165955,258.637604 401.046539,263.144470 400.461639,268.584961 
	C398.631805,262.383636 394.342743,260.517029 389.805939,259.143433 
	C384.878448,257.651489 379.806549,256.618164 374.928833,254.991455 
	C373.483673,254.509491 371.304871,252.375305 371.527161,251.563812 
	C371.962646,249.973969 373.605774,248.142670 375.180573,247.541367 
	C380.519440,245.502808 384.430756,247.517227 387.463348,253.109894 
	C391.341797,253.109894 395.087769,253.109894 398.840820,253.109894 
	C398.067688,245.434082 394.704376,240.430252 387.872742,239.223236 
	C382.281799,238.235413 376.259735,238.180603 370.662781,239.114532 
	C363.602814,240.292587 359.343475,246.186249 359.082306,252.894958 
	C358.831604,259.334778 362.199188,263.624542 369.796936,266.000519 
	C374.547974,267.486328 379.500061,268.352905 384.196747,269.975464 
	C385.721924,270.502411 387.975250,272.948181 387.698090,273.806976 
	C387.161469,275.469269 385.280273,277.370697 383.576904,277.864746 
	C376.798645,279.830688 372.749878,277.756927 369.289246,271.300659 
	C364.961426,271.300659 360.686218,271.300659 356.526794,270.412323 
	C356.711792,266.270721 357.346832,262.090424 356.994934,257.994965 
	C356.051178,247.011810 347.700989,238.981949 336.776886,238.025238 
	C323.749329,236.884308 314.000092,242.965744 310.833710,254.174423 
	C310.218689,256.351410 309.485504,258.495026 308.700531,260.992340 
	C307.494537,259.049652 306.821838,257.479950 305.722534,256.311646 
	C304.160126,254.651199 302.284027,253.285904 300.535828,251.789276 
	C306.679565,246.530304 308.669617,240.950012 306.554382,234.257736 
	C304.410339,227.474274 299.359741,223.507004 292.572662,223.197372 
	C280.810486,222.660767 269.006195,223.048401 257.322662,223.048401 
	C257.322662,244.125488 257.322662,265.021637 257.322662,285.913727 
	C258.173431,285.956726 258.668488,286.003571 259.163544,286.003510 
	C267.829620,286.002747 276.496277,286.060211 285.161591,285.976624 
	C299.881805,285.834625 304.704590,282.498779 309.427002,269.926788 
	C312.069519,273.703888 314.281616,278.580109 317.949219,281.796753 
	C330.511780,292.814667 349.326324,287.489868 357.464386,271.160156 
M67.185265,282.479736 
	C61.460529,266.188202 55.731480,249.898193 50.012535,233.604630 
	C46.115059,222.500534 46.122143,222.621902 34.368103,222.695099 
	C31.440418,222.713318 30.399294,223.825027 29.525373,226.375641 
	C25.650572,237.684479 21.563656,248.920654 17.553480,260.183105 
	C14.556152,268.600983 11.558809,277.018860 8.572344,285.406189 
	C9.250478,285.718079 9.521897,285.941803 9.806023,285.959320 
	C21.587086,286.685211 21.529367,286.659851 25.845678,275.819794 
	C26.316000,274.638611 27.903522,273.142487 29.019907,273.102356 
	C35.969250,272.852753 42.932007,272.976562 49.951996,272.976562 
	C51.439537,277.520203 52.820137,281.737213 54.160950,285.832703 
	C58.962395,285.832703 63.416962,285.832703 68.119926,285.832703 
	C67.884537,284.824982 67.701332,284.040619 67.185265,282.479736 
M111.021523,278.441772 
	C111.021523,259.916016 111.021523,241.390274 111.021523,223.100891 
	C106.511658,223.100891 102.760864,223.100891 98.605850,223.100891 
	C98.605850,230.141876 98.605850,236.873840 98.605850,244.475632 
	C92.094154,237.618271 84.954155,236.022842 77.266457,239.581589 
	C69.163483,243.332581 66.186935,250.628647 65.698235,259.091064 
	C65.536209,261.896912 65.596024,264.755615 65.938225,267.543030 
	C66.917801,275.522308 69.861542,282.616638 77.819443,285.770325 
	C85.436539,288.789001 92.740509,287.762115 98.787956,280.709747 
	C98.964378,282.884216 99.086723,284.392212 99.191788,285.687225 
	C103.398544,285.687225 107.135193,285.687225 111.021523,285.687225 
	C111.021523,283.388672 111.021523,281.407349 111.021523,278.441772 
M447.016235,247.500000 
	C447.016235,260.254913 447.016235,273.009827 447.016235,285.860046 
	C451.355499,285.860046 455.142761,285.860046 459.037201,285.860046 
	C459.142029,285.085266 459.302521,284.438385 459.306122,283.790619 
	C459.353149,275.301636 459.129181,266.801941 459.488342,258.326813 
	C459.768402,251.717712 463.787292,248.002441 469.458374,248.194656 
	C474.895081,248.378952 477.024994,251.314972 477.042206,258.749908 
	C477.062897,267.695587 477.047089,276.641327 477.047089,285.732727 
	C481.333466,285.732727 485.210297,285.732727 489.241028,285.732727 
	C489.241028,274.163788 489.505157,262.856201 489.148804,251.568207 
	C488.908661,243.962051 483.270355,238.768936 475.696014,237.997025 
	C469.622742,237.378098 464.353088,239.079071 459.298492,244.445923 
	C459.298492,236.483047 459.298492,229.781189 459.298492,222.971527 
	C454.987671,222.971527 451.220337,222.971527 447.016235,222.971527 
	C447.016235,230.934357 447.016235,238.717178 447.016235,247.500000 
M178.435715,248.394547 
	C180.745895,248.227203 183.064575,247.850571 185.364197,247.943787 
	C188.469269,248.069672 191.418777,249.456635 190.823196,252.897339 
	C190.541534,254.524521 187.799759,256.397766 185.838745,256.930450 
	C180.886642,258.275604 175.612869,258.483368 170.711212,259.956268 
	C163.614258,262.088837 159.990067,268.709076 161.168304,276.019104 
	C162.221680,282.554382 167.294220,286.697235 174.586060,287.119659 
	C180.337479,287.452911 185.447601,285.995331 189.823654,282.152557 
	C190.248077,281.779846 190.894882,281.660370 191.462387,281.412872 
	C191.986023,283.095856 192.415253,284.475464 192.802292,285.719421 
	C197.333069,285.719421 201.567001,285.719421 204.887802,285.719421 
	C204.299530,281.580078 203.395996,277.653564 203.254425,273.699768 
	C202.992203,266.376038 203.115097,259.035706 203.192429,251.703522 
	C203.254959,245.773834 200.372742,241.888763 195.013382,239.863297 
	C187.400650,236.986237 179.647125,237.054672 172.052490,239.837418 
	C166.108185,242.015457 163.106430,247.094345 163.200912,253.828232 
	C168.941940,254.778351 174.550507,255.344055 178.435715,248.394547 
M238.608093,256.772156 
	C238.608093,266.397186 238.608093,276.022186 238.608093,285.727722 
	C242.910690,285.727722 246.804520,285.727722 250.912308,285.727722 
	C250.912308,274.333344 251.135742,263.209656 250.836273,252.100021 
	C250.625427,244.278137 245.056580,238.890839 237.261459,238.023102 
	C230.735382,237.296631 225.183136,239.130768 220.731079,245.222183 
	C220.415710,242.577545 220.224350,240.972946 220.014359,239.211975 
	C216.268387,239.211975 212.659180,239.211975 208.917511,239.211975 
	C208.917511,254.813919 208.917511,270.318939 208.917511,285.763794 
	C213.050125,285.763794 216.815826,285.763794 220.932541,285.763794 
	C220.932541,283.743622 220.928268,281.947052 220.933289,280.150513 
	C220.954178,272.664764 220.803864,265.173157 221.057495,257.695221 
	C221.248489,252.063889 224.846680,248.546341 230.050354,248.218063 
	C235.035507,247.903580 237.290131,249.932816 238.608093,256.772156 
M140.416458,250.362427 
	C141.636230,250.231155 142.856003,250.099884 143.948730,249.982285 
	C143.948730,245.768158 143.948730,242.001251 143.948730,238.150085 
	C137.090652,237.076218 132.775589,240.396667 128.977722,247.030853 
	C128.977722,243.527603 128.977722,241.494781 128.977722,239.278625 
	C124.828995,239.278625 121.096870,239.278625 117.245003,239.278625 
	C117.245003,254.902039 117.245003,270.282684 117.245003,285.697998 
	C121.349564,285.697998 125.216614,285.697998 129.331024,285.697998 
	C129.331024,277.587982 129.190536,269.779724 129.370667,261.978821 
	C129.549759,254.223419 131.873169,251.763535 140.416458,250.362427 
M158.082352,276.470886 
	C158.082352,264.073578 158.082352,251.676254 158.082352,239.272919 
	C153.724869,239.272919 149.974304,239.272919 146.067383,239.272919 
	C146.067383,254.872116 146.067383,270.240387 146.067383,285.696594 
	C150.157974,285.696594 154.032852,285.696594 158.082352,285.696594 
	C158.082352,282.750244 158.082352,280.106201 158.082352,276.470886 
M150.680450,222.017365 
	C149.195648,222.017365 147.710846,222.017365 146.186661,222.017365 
	C146.186661,225.978134 146.186661,229.683716 146.186661,233.273163 
	C150.316437,233.273163 154.080109,233.273163 157.812195,233.273163 
	C157.812195,229.409454 157.812195,225.835922 157.812195,222.017365 
	C155.552338,222.017365 153.581131,222.017365 150.680450,222.017365 
z"/>
<path fill="#050505" opacity="1.000000" stroke="none" 
	d="
M356.489990,271.339691 
	C349.326324,287.489868 330.511780,292.814667 317.949219,281.796753 
	C314.281616,278.580109 312.069519,273.703888 309.427002,269.926788 
	C304.704590,282.498779 299.881805,285.834625 285.161591,285.976624 
	C276.496277,286.060211 267.829620,286.002747 259.163544,286.003510 
	C258.668488,286.003571 258.173431,285.956726 257.322662,285.913727 
	C257.322662,265.021637 257.322662,244.125488 257.322662,223.048401 
	C269.006195,223.048401 280.810486,222.660767 292.572662,223.197372 
	C299.359741,223.507004 304.410339,227.474274 306.554382,234.257736 
	C308.669617,240.950012 306.679565,246.530304 300.535828,251.789276 
	C302.284027,253.285904 304.160126,254.651199 305.722534,256.311646 
	C306.821838,257.479950 307.494537,259.049652 308.700531,260.992340 
	C309.485504,258.495026 310.218689,256.351410 310.833710,254.174423 
	C314.000092,242.965744 323.749329,236.884308 336.776886,238.025238 
	C347.700989,238.981949 356.051178,247.011810 356.994934,257.994965 
	C357.346832,262.090424 356.711792,266.270721 356.509888,270.828888 
	C356.493011,271.245453 356.489990,271.339691 356.489990,271.339691 
M344.524658,259.188293 
	C342.838043,251.198868 339.150787,247.749557 332.804688,248.224640 
	C326.592957,248.689667 323.076569,252.854980 322.595734,260.763397 
	C322.436066,263.389923 322.625732,266.126495 323.201019,268.690369 
	C324.372803,273.912872 328.472473,276.926300 333.706024,276.867065 
	C338.773621,276.809692 342.675690,273.979980 343.852966,268.911896 
	C344.520508,266.038239 344.413055,262.984558 344.524658,259.188293 
M269.721191,268.485474 
	C269.721191,270.572357 269.721191,272.659241 269.721191,274.930542 
	C276.219269,274.930542 282.181976,275.192902 288.109772,274.850677 
	C293.199860,274.556824 295.911743,271.269135 295.982147,266.334412 
	C296.047302,261.769684 293.426086,258.618713 288.311401,258.295593 
	C282.243073,257.912262 276.131989,258.205444 269.721191,258.205444 
	C269.721191,261.574066 269.721191,264.536133 269.721191,268.485474 
M277.490021,233.651505 
	C275.049988,233.651505 272.609955,233.651505 270.054657,233.651505 
	C270.054657,238.475815 270.054657,242.839752 270.054657,247.041153 
	C276.494537,247.041153 282.626465,247.334671 288.712616,246.933487 
	C292.497070,246.684036 294.521362,243.953918 294.377350,240.043091 
	C294.238708,236.277908 292.022217,234.278229 288.416534,233.977539 
	C285.117065,233.702393 281.790863,233.747513 277.490021,233.651505 
z"/>
<path fill="#060606" opacity="1.000000" stroke="none" 
	d="
M356.452026,271.273071 
	C360.686218,271.300659 364.961426,271.300659 369.289246,271.300659 
	C372.749878,277.756927 376.798645,279.830688 383.576904,277.864746 
	C385.280273,277.370697 387.161469,275.469269 387.698090,273.806976 
	C387.975250,272.948181 385.721924,270.502411 384.196747,269.975464 
	C379.500061,268.352905 374.547974,267.486328 369.796936,266.000519 
	C362.199188,263.624542 358.831604,259.334778 359.082306,252.894958 
	C359.343475,246.186249 363.602814,240.292587 370.662781,239.114532 
	C376.259735,238.180603 382.281799,238.235413 387.872742,239.223236 
	C394.704376,240.430252 398.067688,245.434082 398.840820,253.109894 
	C395.087769,253.109894 391.341797,253.109894 387.463348,253.109894 
	C384.430756,247.517227 380.519440,245.502808 375.180573,247.541367 
	C373.605774,248.142670 371.962646,249.973969 371.527161,251.563812 
	C371.304871,252.375305 373.483673,254.509491 374.928833,254.991455 
	C379.806549,256.618164 384.878448,257.651489 389.805939,259.143433 
	C394.342743,260.517029 398.631805,262.383636 400.461639,268.584961 
	C401.046539,263.144470 401.165955,258.637604 402.077911,254.297241 
	C403.698212,246.586060 408.101776,240.972260 416.014771,238.911499 
	C424.352264,236.740204 432.503479,237.285049 438.789642,243.725021 
	C441.609802,246.614166 442.936798,250.960815 445.631561,255.914932 
	C440.542847,255.914932 437.129822,256.122101 433.769867,255.790970 
	C432.737396,255.689224 431.931885,254.002441 430.879578,253.238159 
	C428.479401,251.494934 425.941284,248.483719 423.551270,248.568939 
	C420.820557,248.666306 417.072601,250.945831 415.736389,253.365051 
	C412.457245,259.302094 412.814941,266.114655 415.539062,272.152191 
	C416.562866,274.421326 420.310791,276.529541 422.939606,276.689209 
	C425.306183,276.832916 427.972076,274.388855 430.235901,272.719910 
	C431.129333,272.061249 431.291870,270.411255 431.824554,269.122253 
	C435.853058,269.122253 439.805573,269.122253 443.781647,269.122253 
	C442.494232,279.049652 436.164886,285.712585 426.993561,286.956451 
	C414.101044,288.705017 407.250732,284.535645 401.268768,271.299438 
	C398.203430,283.890045 392.274811,288.064209 378.074768,287.629608 
	C365.284393,287.238159 359.595764,282.692444 356.977173,271.249939 
	C356.489990,271.339691 356.493011,271.245453 356.452026,271.273071 
z"/>
<path fill="#040404" opacity="1.000000" stroke="none" 
	d="
M67.351700,282.868011 
	C67.701332,284.040619 67.884537,284.824982 68.119926,285.832703 
	C63.416962,285.832703 58.962395,285.832703 54.160950,285.832703 
	C52.820137,281.737213 51.439537,277.520203 49.951996,272.976562 
	C42.932007,272.976562 35.969250,272.852753 29.019907,273.102356 
	C27.903522,273.142487 26.316000,274.638611 25.845678,275.819794 
	C21.529367,286.659851 21.587086,286.685211 9.806023,285.959320 
	C9.521897,285.941803 9.250478,285.718079 8.572344,285.406189 
	C11.558809,277.018860 14.556152,268.600983 17.553480,260.183105 
	C21.563656,248.920654 25.650572,237.684479 29.525373,226.375641 
	C30.399294,223.825027 31.440418,222.713318 34.368103,222.695099 
	C46.122143,222.621902 46.115059,222.500534 50.012535,233.604630 
	C55.731480,249.898193 61.460529,266.188202 67.351700,282.868011 
M45.481926,259.245911 
	C43.227829,252.094543 40.973728,244.943176 38.356140,236.638611 
	C35.455311,245.748581 32.928631,253.683548 30.275612,262.015259 
	C35.267765,262.015259 39.431042,262.114014 43.581356,261.926300 
	C44.348919,261.891571 45.064152,260.699982 45.481926,259.245911 
z"/>
<path fill="#030303" opacity="1.000000" stroke="none" 
	d="
M111.021523,278.933899 
	C111.021523,281.407349 111.021523,283.388672 111.021523,285.687225 
	C107.135193,285.687225 103.398544,285.687225 99.191788,285.687225 
	C99.086723,284.392212 98.964378,282.884216 98.787956,280.709747 
	C92.740509,287.762115 85.436539,288.789001 77.819443,285.770325 
	C69.861542,282.616638 66.917801,275.522308 65.938225,267.543030 
	C65.596024,264.755615 65.536209,261.896912 65.698235,259.091064 
	C66.186935,250.628647 69.163483,243.332581 77.266457,239.581589 
	C84.954155,236.022842 92.094154,237.618271 98.605850,244.475632 
	C98.605850,236.873840 98.605850,230.141876 98.605850,223.100891 
	C102.760864,223.100891 106.511658,223.100891 111.021523,223.100891 
	C111.021523,241.390274 111.021523,259.916016 111.021523,278.933899 
M98.834084,258.183197 
	C96.593597,250.685715 93.660942,248.191010 87.676109,248.691589 
	C82.457375,249.128098 79.103775,252.870071 78.392220,259.797333 
	C78.094124,262.699249 78.382355,265.776703 79.023712,268.635345 
	C80.274635,274.210876 83.787201,277.073029 88.577324,277.040558 
	C93.580864,277.006653 97.563675,273.874603 98.618515,268.431885 
	C99.207153,265.394623 98.862335,262.176514 98.834084,258.183197 
z"/>
<path fill="#020202" opacity="1.000000" stroke="none" 
	d="
M447.016235,247.000000 
	C447.016235,238.717178 447.016235,230.934357 447.016235,222.971527 
	C451.220337,222.971527 454.987671,222.971527 459.298492,222.971527 
	C459.298492,229.781189 459.298492,236.483047 459.298492,244.445923 
	C464.353088,239.079071 469.622742,237.378098 475.696014,237.997025 
	C483.270355,238.768936 488.908661,243.962051 489.148804,251.568207 
	C489.505157,262.856201 489.241028,274.163788 489.241028,285.732727 
	C485.210297,285.732727 481.333466,285.732727 477.047089,285.732727 
	C477.047089,276.641327 477.062897,267.695587 477.042206,258.749908 
	C477.024994,251.314972 474.895081,248.378952 469.458374,248.194656 
	C463.787292,248.002441 459.768402,251.717712 459.488342,258.326813 
	C459.129181,266.801941 459.353149,275.301636 459.306122,283.790619 
	C459.302521,284.438385 459.142029,285.085266 459.037201,285.860046 
	C455.142761,285.860046 451.355499,285.860046 447.016235,285.860046 
	C447.016235,273.009827 447.016235,260.254913 447.016235,247.000000 
z"/>
<path fill="#050505" opacity="1.000000" stroke="none" 
	d="
M178.076752,248.609894 
	C174.550507,255.344055 168.941940,254.778351 163.200806,253.827942 
	C163.106430,247.094345 166.108185,242.015457 172.052490,239.837418 
	C179.647125,237.054672 187.400650,236.986237 195.013382,239.863297 
	C200.372742,241.888763 203.254959,245.773834 203.192429,251.703522 
	C203.115097,259.035706 202.992203,266.376038 203.254425,273.699768 
	C203.395996,277.653564 204.299530,281.580078 204.887802,285.719421 
	C201.567001,285.719421 197.333069,285.719421 192.802292,285.719421 
	C192.415253,284.475464 191.986023,283.095856 191.462387,281.412872 
	C190.894882,281.660370 190.248077,281.779846 189.823654,282.152557 
	C185.447601,285.995331 180.337479,287.452911 174.586060,287.119659 
	C167.294220,286.697235 162.221680,282.554382 161.168304,276.019104 
	C159.990067,268.709076 163.614258,262.088837 170.711212,259.956268 
	C175.612869,258.483368 180.886642,258.275604 185.838745,256.930450 
	C187.799759,256.397766 190.541534,254.524521 190.823196,252.897339 
	C191.418777,249.456635 188.469269,248.069672 185.364197,247.943787 
	C183.064575,247.850571 180.745895,248.227203 178.076752,248.609894 
M187.367477,276.010590 
	C191.806778,272.943970 191.404999,268.523743 190.880722,263.937653 
	C186.228622,264.991669 181.514542,265.468140 177.373581,267.265259 
	C175.502487,268.077271 173.689209,271.608673 173.869934,273.734589 
	C174.011536,275.400238 177.099701,277.706207 179.175415,278.079926 
	C181.509109,278.500031 184.175827,277.070435 187.367477,276.010590 
z"/>
<path fill="#030303" opacity="1.000000" stroke="none" 
	d="
M238.568741,256.310852 
	C237.290131,249.932816 235.035507,247.903580 230.050354,248.218063 
	C224.846680,248.546341 221.248489,252.063889 221.057495,257.695221 
	C220.803864,265.173157 220.954178,272.664764 220.933289,280.150513 
	C220.928268,281.947052 220.932541,283.743622 220.932541,285.763794 
	C216.815826,285.763794 213.050125,285.763794 208.917511,285.763794 
	C208.917511,270.318939 208.917511,254.813919 208.917511,239.211975 
	C212.659180,239.211975 216.268387,239.211975 220.014359,239.211975 
	C220.224350,240.972946 220.415710,242.577545 220.731079,245.222183 
	C225.183136,239.130768 230.735382,237.296631 237.261459,238.023102 
	C245.056580,238.890839 250.625427,244.278137 250.836273,252.100021 
	C251.135742,263.209656 250.912308,274.333344 250.912308,285.727722 
	C246.804520,285.727722 242.910690,285.727722 238.608093,285.727722 
	C238.608093,276.022186 238.608093,266.397186 238.568741,256.310852 
z"/>
<path fill="#030303" opacity="1.000000" stroke="none" 
	d="
M139.981140,250.404999 
	C131.873169,251.763535 129.549759,254.223419 129.370667,261.978821 
	C129.190536,269.779724 129.331024,277.587982 129.331024,285.697998 
	C125.216614,285.697998 121.349564,285.697998 117.245003,285.697998 
	C117.245003,270.282684 117.245003,254.902039 117.245003,239.278625 
	C121.096870,239.278625 124.828995,239.278625 128.977722,239.278625 
	C128.977722,241.494781 128.977722,243.527603 128.977722,247.030853 
	C132.775589,240.396667 137.090652,237.076218 143.948730,238.150085 
	C143.948730,242.001251 143.948730,245.768158 143.948730,249.982285 
	C142.856003,250.099884 141.636230,250.231155 139.981140,250.404999 
z"/>
<path fill="#000000" opacity="1.000000" stroke="none" 
	d="
M158.082352,276.966522 
	C158.082352,280.106201 158.082352,282.750244 158.082352,285.696594 
	C154.032852,285.696594 150.157974,285.696594 146.067383,285.696594 
	C146.067383,270.240387 146.067383,254.872116 146.067383,239.272919 
	C149.974304,239.272919 153.724869,239.272919 158.082352,239.272919 
	C158.082352,251.676254 158.082352,264.073578 158.082352,276.966522 
z"/>
<path fill="#0C0C0C" opacity="1.000000" stroke="none" 
	d="
M151.145172,222.017365 
	C153.581131,222.017365 155.552338,222.017365 157.812195,222.017365 
	C157.812195,225.835922 157.812195,229.409454 157.812195,233.273163 
	C154.080109,233.273163 150.316437,233.273163 146.186661,233.273163 
	C146.186661,229.683716 146.186661,225.978134 146.186661,222.017365 
	C147.710846,222.017365 149.195648,222.017365 151.145172,222.017365 
z"/>
<path fill="#F9F9F9" opacity="1.000000" stroke="none" 
	d="
M344.589661,259.600128 
	C344.413055,262.984558 344.520508,266.038239 343.852966,268.911896 
	C342.675690,273.979980 338.773621,276.809692 333.706024,276.867065 
	C328.472473,276.926300 324.372803,273.912872 323.201019,268.690369 
	C322.625732,266.126495 322.436066,263.389923 322.595734,260.763397 
	C323.076569,252.854980 326.592957,248.689667 332.804688,248.224640 
	C339.150787,247.749557 342.838043,251.198868 344.589661,259.600128 
z"/>
<path fill="#FBFBFB" opacity="1.000000" stroke="none" 
	d="
M269.721191,267.991821 
	C269.721191,264.536133 269.721191,261.574066 269.721191,258.205444 
	C276.131989,258.205444 282.243073,257.912262 288.311401,258.295593 
	C293.426086,258.618713 296.047302,261.769684 295.982147,266.334412 
	C295.911743,271.269135 293.199860,274.556824 288.109772,274.850677 
	C282.181976,275.192902 276.219269,274.930542 269.721191,274.930542 
	C269.721191,272.659241 269.721191,270.572357 269.721191,267.991821 
z"/>
<path fill="#FEFEFE" opacity="1.000000" stroke="none" 
	d="
M277.983215,233.651505 
	C281.790863,233.747513 285.117065,233.702393 288.416534,233.977539 
	C292.022217,234.278229 294.238708,236.277908 294.377350,240.043091 
	C294.521362,243.953918 292.497070,246.684036 288.712616,246.933487 
	C282.626465,247.334671 276.494537,247.041153 270.054657,247.041153 
	C270.054657,242.839752 270.054657,238.475815 270.054657,233.651505 
	C272.609955,233.651505 275.049988,233.651505 277.983215,233.651505 
z"/>
<path fill="#F7F7F7" opacity="1.000000" stroke="none" 
	d="
M45.642731,259.644104 
	C45.064152,260.699982 44.348919,261.891571 43.581356,261.926300 
	C39.431042,262.114014 35.267765,262.015259 30.275612,262.015259 
	C32.928631,253.683548 35.455311,245.748581 38.356140,236.638611 
	C40.973728,244.943176 43.227829,252.094543 45.642731,259.644104 
z"/>
<path fill="#FAFAFA" opacity="1.000000" stroke="none" 
	d="
M98.886124,258.611542 
	C98.862335,262.176514 99.207153,265.394623 98.618515,268.431885 
	C97.563675,273.874603 93.580864,277.006653 88.577324,277.040558 
	C83.787201,277.073029 80.274635,274.210876 79.023712,268.635345 
	C78.382355,265.776703 78.094124,262.699249 78.392220,259.797333 
	C79.103775,252.870071 82.457375,249.128098 87.676109,248.691589 
	C93.660942,248.191010 96.593597,250.685715 98.886124,258.611542 
z"/>
<path fill="#F7F7F7" opacity="1.000000" stroke="none" 
	d="
M187.032578,276.228027 
	C184.175827,277.070435 181.509109,278.500031 179.175415,278.079926 
	C177.099701,277.706207 174.011536,275.400238 173.869934,273.734589 
	C173.689209,271.608673 175.502487,268.077271 177.373581,267.265259 
	C181.514542,265.468140 186.228622,264.991669 190.880722,263.937653 
	C191.404999,268.523743 191.806778,272.943970 187.032578,276.228027 
z"/>
</svg>